<svg width="12" height="13" viewBox="0 0 12 13" fill="none" xmlns="http://www.w3.org/2000/svg">
<g id="elements">
<path id="Subtract" fill-rule="evenodd" clip-rule="evenodd" d="M4.96056 12.2449C5.21479 12.3904 5.42734 12.5011 5.57745 12.5759L5.99869 12.7709L6.41993 12.5759C6.57003 12.5011 6.78258 12.3904 7.03682 12.2449C7.5443 11.9545 8.22292 11.5226 8.90377 10.9571C10.2507 9.83834 11.6862 8.12828 11.6862 5.8981C11.6862 2.76728 9.13981 0.229248 5.99869 0.229248C2.85757 0.229248 0.311188 2.76728 0.311188 5.8981C0.311188 8.12828 1.74663 9.83834 3.09361 10.9571C3.77445 11.5226 4.45308 11.9545 4.96056 12.2449ZM5.99869 2.70841L6.91744 4.28341L8.62369 4.71374L7.44244 5.98967L7.88353 7.95842L5.99869 7.17092L4.11385 7.95842L4.55494 5.98967L3.37369 4.71374L5.07994 4.28341L5.99869 2.70841Z" fill="#6557FF"/>
</g>
</svg>
