<svg width="134" height="21" viewBox="0 0 134 21" fill="none" xmlns="http://www.w3.org/2000/svg">
<path d="M54.057 10.1359C54.057 10.4593 54.0358 10.7505 53.9936 11.0092H47.5737C47.6265 11.6562 47.8484 12.163 48.2394 12.5296C48.6305 12.8962 49.1113 13.0795 49.6819 13.0795C50.5062 13.0795 51.0927 12.7183 51.4415 11.9958H53.8351C53.5814 12.8584 53.0953 13.5701 52.3767 14.1308C51.6581 14.6807 50.7757 14.9556 49.7295 14.9556C48.8841 14.9556 48.1232 14.7669 47.4469 14.3895C46.7811 14.0014 46.258 13.4569 45.8776 12.756C45.5077 12.0551 45.3228 11.2465 45.3228 10.3299C45.3228 9.40265 45.5077 8.58857 45.8776 7.88771C46.2474 7.18685 46.7652 6.64772 47.431 6.27033C48.0968 5.89295 48.8629 5.70425 49.7295 5.70425C50.5643 5.70425 51.3094 5.88756 51.9646 6.25416C52.6303 6.62076 53.1429 7.14372 53.5022 7.82301C53.872 8.49153 54.057 9.26248 54.057 10.1359ZM51.7585 9.48891C51.7479 8.90665 51.5419 8.44301 51.1403 8.09797C50.7387 7.74214 50.2473 7.56423 49.6661 7.56423C49.1166 7.56423 48.6516 7.73675 48.2711 8.08179C47.9013 8.41605 47.6741 8.88509 47.5895 9.48891H51.7585Z" fill="white"/>
<path d="M72.9055 7.14372C73.1909 6.73398 73.5819 6.39433 74.0785 6.12477C74.5858 5.84443 75.1617 5.70425 75.8064 5.70425C76.5567 5.70425 77.233 5.89295 77.8354 6.27033C78.4483 6.64772 78.9291 7.18685 79.2779 7.88771C79.6372 8.57779 79.8168 9.38108 79.8168 10.2976C79.8168 11.2141 79.6372 12.0282 79.2779 12.7398C78.9291 13.4407 78.4483 13.9852 77.8354 14.3734C77.233 14.7615 76.5567 14.9556 75.8064 14.9556C75.1617 14.9556 74.5911 14.8208 74.0944 14.5513C73.6083 14.2817 73.212 13.9421 72.9055 13.5323V19.0799H70.6863V5.84982H72.9055V7.14372ZM77.55 10.2976C77.55 9.75847 77.4391 9.29482 77.2172 8.90665C77.0058 8.5077 76.7205 8.20579 76.3612 8.00092C76.0124 7.79606 75.632 7.69362 75.2199 7.69362C74.8183 7.69362 74.4378 7.80145 74.0785 8.0171C73.7298 8.22196 73.4445 8.52387 73.2226 8.92283C73.0112 9.32178 72.9055 9.79082 72.9055 10.3299C72.9055 10.8691 73.0112 11.3381 73.2226 11.7371C73.4445 12.136 73.7298 12.4433 74.0785 12.659C74.4378 12.8638 74.8183 12.9663 75.2199 12.9663C75.632 12.9663 76.0124 12.8584 76.3612 12.6428C76.7205 12.4271 77.0058 12.1198 77.2172 11.7209C77.4391 11.3219 77.55 10.8475 77.55 10.2976Z" fill="white"/>
<path d="M85.7411 5.72043C86.4069 5.72043 86.9987 5.87138 87.5165 6.17329C88.0343 6.46442 88.4359 6.90111 88.7212 7.48336C89.0171 8.05484 89.165 8.74492 89.165 9.5536V14.8101H86.9458V9.8609C86.9458 9.14926 86.7715 8.60474 86.4227 8.22736C86.074 7.83919 85.5984 7.6451 84.9961 7.6451C84.3832 7.6451 83.897 7.83919 83.5377 8.22736C83.189 8.60474 83.0146 9.14926 83.0146 9.8609V14.8101H80.7954V1.15674H83.0146V6.9658C83.3 6.57763 83.6804 6.27573 84.1559 6.06008C84.6315 5.83364 85.1599 5.72043 85.7411 5.72043Z" fill="white"/>
<path d="M91.7668 4.78235C91.3758 4.78235 91.0482 4.65835 90.784 4.41035C90.5304 4.15157 90.4036 3.83349 90.4036 3.4561C90.4036 3.07872 90.5304 2.76602 90.784 2.51803C91.0482 2.25925 91.3758 2.12986 91.7668 2.12986C92.1578 2.12986 92.4801 2.25925 92.7337 2.51803C92.9979 2.76602 93.13 3.07872 93.13 3.4561C93.13 3.83349 92.9979 4.15157 92.7337 4.41035C92.4801 4.65835 92.1578 4.78235 91.7668 4.78235ZM92.8606 5.84982V14.8101H90.6413V5.84982H92.8606Z" fill="white"/>
<path d="M97.7796 14.9556C97.061 14.9556 96.4164 14.8262 95.8457 14.5675C95.2751 14.2979 94.8207 13.9367 94.4825 13.4838C94.1549 13.031 93.9753 12.5296 93.9435 11.9797H96.1786C96.2209 12.3247 96.3847 12.6104 96.67 12.8369C96.9659 13.0633 97.3305 13.1765 97.7638 13.1765C98.1865 13.1765 98.5141 13.0903 98.7466 12.9177C98.9896 12.7452 99.1112 12.5242 99.1112 12.2546C99.1112 11.9635 98.9632 11.7478 98.6673 11.6077C98.382 11.4567 97.9223 11.295 97.2882 11.1225C96.633 10.9607 96.0941 10.7936 95.6714 10.6211C95.2592 10.4485 94.8999 10.1844 94.5935 9.82856C94.2976 9.47273 94.1496 8.99291 94.1496 8.38909C94.1496 7.8931 94.287 7.44023 94.5618 7.0305C94.8471 6.62076 95.2487 6.29729 95.7665 6.06008C96.2949 5.82286 96.9131 5.70425 97.6211 5.70425C98.6673 5.70425 99.5022 5.97382 100.126 6.51294C100.749 7.04128 101.093 7.75832 101.156 8.66405H99.0319C99.0002 8.30822 98.8523 8.02788 98.5881 7.82301C98.3344 7.60736 97.991 7.49954 97.5577 7.49954C97.1561 7.49954 96.8444 7.57502 96.6225 7.72597C96.4111 7.87692 96.3054 8.08718 96.3054 8.35675C96.3054 8.65866 96.4534 8.89048 96.7493 9.05222C97.0452 9.20317 97.5049 9.35952 98.1284 9.52125C98.7624 9.68299 99.2855 9.85012 99.6977 10.0226C100.11 10.1952 100.464 10.4647 100.76 10.8313C101.066 11.1871 101.225 11.6616 101.235 12.2546C101.235 12.7722 101.093 13.2358 100.807 13.6456C100.533 14.0553 100.131 14.3788 99.6026 14.616C99.0847 14.8424 98.4771 14.9556 97.7796 14.9556Z" fill="white"/>
<path d="M40.7615 5.47791C41.7993 5.47791 42.6336 5.81909 43.2644 6.50145C43.9054 7.17299 44.2259 8.1153 44.2259 9.32839V14.6086H42.0893V9.63708C42.0893 8.93305 41.9214 8.39691 41.5856 8.02865C41.2499 7.64956 40.792 7.46001 40.2121 7.46001C39.6321 7.46001 39.1692 7.64956 38.8233 8.02865C38.4875 8.39691 38.3196 8.93305 38.3196 9.63708V14.6086H36.183V9.63708C36.183 8.93305 36.0152 8.39691 35.6794 8.02865C35.3436 7.64956 34.8858 7.46001 34.3059 7.46001C33.7157 7.46001 33.2477 7.64956 32.9018 8.02865C32.566 8.39691 32.3982 8.93305 32.3982 9.63708V14.6086H30.2615V5.60788H32.3982V6.69641C32.6729 6.31732 33.0239 6.01946 33.4512 5.80284C33.8887 5.58622 34.3669 5.47791 34.8858 5.47791C35.5471 5.47791 36.1372 5.62954 36.6561 5.93281C37.175 6.22526 37.5769 6.64767 37.8618 7.20006C38.1365 6.68017 38.5333 6.26317 39.0522 5.94906C39.5813 5.63496 40.151 5.47791 40.7615 5.47791Z" fill="white"/>
<path d="M66.0312 5.47791C67.0689 5.47791 67.9032 5.81909 68.5341 6.50145C69.175 7.17298 69.4955 8.1153 69.4955 9.32839V14.6086H67.3589V9.63708C67.3589 8.93305 67.191 8.39691 66.8553 8.02865C66.5195 7.64956 66.0617 7.46001 65.4817 7.46001C64.9018 7.46001 64.4389 7.64956 64.0929 8.02865C63.7572 8.39691 63.5893 8.93305 63.5893 9.63708V14.6086H61.4527V9.63708C61.4527 8.93305 61.2848 8.39691 60.949 8.02865C60.6133 7.64956 60.1554 7.46001 59.5755 7.46001C58.9854 7.46001 58.5174 7.64956 58.1714 8.02865C57.8357 8.39691 57.6678 8.93305 57.6678 9.63708V14.6086H55.5312V5.60788H57.6678V6.69641C57.9425 6.31732 58.2935 6.01946 58.7209 5.80284C59.1584 5.58622 59.6366 5.47791 60.1554 5.47791C60.8168 5.47791 61.4069 5.62954 61.9258 5.93281C62.4447 6.22526 62.8466 6.64767 63.1315 7.20006C63.4062 6.68017 63.803 6.26317 64.3219 5.94906C64.8509 5.63496 65.4207 5.47791 66.0312 5.47791Z" fill="white"/>
<path d="M104.825 13.6094C104.825 12.8611 104.239 12.2755 103.442 12.2755C102.612 12.2755 102.027 12.8611 102.027 13.6094C102.027 14.3577 102.612 14.9434 103.442 14.9434C104.239 14.9434 104.825 14.3577 104.825 13.6094Z" fill="white"/>
<path d="M105.179 10.2908C105.179 13.1051 107.001 14.9759 109.295 14.9759C110.71 14.9759 111.718 14.3252 112.255 13.4955V14.8295H114.565V2.79126H112.255V7.06972C111.637 6.22379 110.498 5.67068 109.311 5.67068C107.001 5.67068 105.179 7.47642 105.179 10.2908ZM112.272 10.3233C112.272 12.0314 111.133 12.975 109.88 12.975C108.66 12.975 107.505 11.9989 107.505 10.2908C107.505 8.58264 108.66 7.67163 109.88 7.67163C111.133 7.67163 112.272 8.61517 112.272 10.3233Z" fill="white"/>
<path d="M119.767 7.54149C120.938 7.54149 121.882 8.28981 121.914 9.47737H117.636C117.815 8.24101 118.677 7.54149 119.767 7.54149ZM124.045 11.9989H121.589C121.296 12.6008 120.759 13.0888 119.783 13.0888C118.644 13.0888 117.733 12.3405 117.619 11.0066H124.208C124.257 10.7137 124.273 10.4209 124.273 10.1281C124.273 7.44388 122.435 5.67068 119.832 5.67068C117.164 5.67068 115.309 7.47642 115.309 10.3233C115.309 13.1539 117.213 14.9759 119.832 14.9759C122.061 14.9759 123.557 13.6582 124.045 11.9989Z" fill="white"/>
<path d="M124.081 5.81709L127.399 14.8295H130.165L133.5 5.81709H131.076L128.799 12.731L126.521 5.81709H124.081Z" fill="white"/>
<path fill-rule="evenodd" clip-rule="evenodd" d="M12.8253 18.1423C12.7637 18.3886 12.6401 18.6008 12.4588 18.805C12.2615 19.0239 11.986 19.2114 11.6914 19.3587C11.0209 19.694 10.243 19.795 9.4758 19.696L9.47075 19.6953L9.46569 19.6948C8.77032 19.6229 8.10131 19.336 7.57692 18.8618L1.3712 12.7099L1.37061 12.7093C1.1946 12.5332 1.07475 12.3868 0.997337 12.2126C0.912221 12.0211 0.871119 11.8356 0.870728 11.6264L0.924708 8.22561L0.923824 8.21058C0.904032 7.87412 1.01828 7.54894 1.30087 7.24462L1.30301 7.24232L1.30511 7.23999C1.50159 7.02168 1.77579 6.8346 2.06928 6.68741C2.73012 6.37612 3.53737 6.26931 4.30392 6.36513C5.07462 6.46147 5.76225 6.75679 6.20704 7.20158L6.20797 7.20251L12.4298 13.3435L12.4376 13.3505C12.6193 13.512 12.7476 13.7194 12.8376 13.9669C12.8992 14.1362 12.9362 14.2855 12.9474 14.4317L12.8671 17.8858V17.8905C12.8671 17.946 12.8508 18.0404 12.8253 18.1423Z" fill="#FFC633"/>
<path d="M14.9005 12.1388C14.9119 12.127 14.9231 12.115 14.9343 12.103C15.1514 11.8701 15.3059 11.586 15.3835 11.2772C15.4127 11.1611 15.429 11.042 15.4319 10.9222L15.4966 7.44379C15.4941 7.56107 15.4545 7.35101 15.4267 7.46499C15.4517 7.35011 15.4945 7.56792 15.4965 7.45134L15.4965 7.45107C15.4999 7.25167 15.4699 7.05227 15.4069 6.8613C15.3071 6.5586 15.1281 6.28812 14.8885 6.07792C13.8342 5.03161 11.763 4.76801 10.2783 5.48618C9.9425 5.64402 9.64024 5.86501 9.38798 6.1371C9.02594 6.53295 8.85351 6.99815 8.88731 7.46431L8.88107 7.76264L14.9005 12.1388L14.9003 12.1389L8.88107 7.76264L8.85205 9.15128L12.7987 13.0467C12.8217 13.0671 12.8439 13.088 12.8654 13.1093C13.2766 13.0487 13.6764 12.9321 14.0413 12.7566C14.3628 12.6045 14.6539 12.3951 14.9003 12.1389L14.9005 12.1388Z" fill="#61DFC6"/>
<path d="M15.9003 7.53696C15.9047 7.29202 15.8474 6.92603 15.7701 6.69144C15.6434 6.31526 15.2999 5.90002 15.144 5.73943C14.6646 5.26754 14.0063 5.0213 13.3164 4.85215L13.3707 2.26236L13.3698 2.24733C13.35 1.91086 13.4643 1.58569 13.7468 1.28137L13.749 1.27907L13.7511 1.27673C13.9476 1.05842 14.2218 0.871344 14.5153 0.724154C15.1761 0.412866 15.9833 0.30606 16.7499 0.401879C17.5206 0.498217 18.2082 0.793536 18.653 1.23833L18.6539 1.23926L24.8757 7.38025L24.8836 7.38725C25.0653 7.54871 25.1936 7.75617 25.2835 8.00361C25.3092 8.07997 25.3646 8.25952 25.3816 8.36686C25.3869 8.40111 25.3908 8.43489 25.3934 8.46843L25.313 11.9226V11.9273C25.313 11.9828 25.2968 12.0772 25.2713 12.1791C25.2097 12.4254 25.0861 12.6376 24.9047 12.8418C24.7074 13.0607 24.432 13.2481 24.1374 13.3954C23.4668 13.7307 22.689 13.8317 21.9218 13.7327L21.9167 13.7321L21.9117 13.7315C21.2163 13.6596 20.5473 13.3728 20.0229 12.8986L15.8798 8.75682L15.9003 7.53696Z" fill="#6557FF"/>
</svg>
